<svg version="1.1" id="Layer_1" xmlns="http://www.w3.org/2000/svg" xmlns:xlink="http://www.w3.org/1999/xlink" x="0px" y="0px"
	 width="100%" viewBox="0 0 1065 701" enable-background="new 0 0 1065 701" xml:space="preserve">
<path fill="#FEFEFD" opacity="1.000000" stroke="none" 
	d="
M122.000000,1.000000 
	C436.629242,1.000000 751.258484,1.000000 1065.943848,1.000000 
	C1065.943848,234.601456 1065.943848,468.202911 1065.943848,701.902222 
	C711.107422,701.902222 356.214844,701.902222 1.161125,701.902222 
	C1.161125,468.333405 1.161125,234.666718 1.161125,1.000000 
	C30.090919,1.000000 59.087505,1.000000 88.471298,1.371701 
	C87.731369,2.169695 86.537453,2.474858 85.492744,3.050714 
	C83.931839,3.911112 82.475983,4.962082 80.971222,5.958221 
	C80.967003,5.984459 80.924812,5.954470 80.517853,5.945632 
	C75.899948,7.227672 71.629234,8.360829 67.519470,9.918620 
	C66.471863,10.315713 65.934715,12.059487 65.071609,13.128126 
	C64.980186,13.071736 65.171104,13.166426 64.809380,13.136757 
	C62.948383,14.347028 61.449108,15.586968 59.811176,16.947037 
	C59.672520,17.067165 59.321529,17.174103 58.954353,17.139282 
	C57.390308,18.394613 56.193443,19.684767 54.808231,21.198807 
	C54.046928,21.934263 53.473972,22.445837 52.528198,22.965683 
	C51.186474,24.124720 50.217567,25.275484 49.209015,26.585342 
	C49.169369,26.744434 48.956024,26.993462 48.592545,27.027462 
	C45.705978,27.947428 43.358223,28.964855 44.132175,32.698807 
	C43.021454,34.333889 42.008003,35.665989 40.644962,37.045135 
	C39.591263,38.496429 38.887157,39.900673 38.143581,41.489540 
	C38.104111,41.674168 37.876114,41.975159 37.527443,42.017822 
	C35.823673,44.771114 34.468571,47.481735 33.067608,50.521503 
	C32.327438,52.230175 31.633129,53.609703 30.587765,55.046932 
	C28.876335,56.871529 26.881866,58.442654 26.265457,60.439232 
	C23.610714,69.038048 21.163805,77.714149 19.047247,86.460365 
	C18.020073,90.704941 17.887291,95.165955 17.386478,99.832458 
	C17.352207,100.741455 17.281059,101.346985 16.934410,102.106903 
	C16.717695,103.158539 16.776478,104.055794 16.852749,105.290787 
	C16.763254,106.063446 16.656275,106.498367 16.223610,107.069298 
	C15.629941,107.607956 15.185742,107.983574 15.119269,108.417107 
	C11.927067,129.237106 10.900299,150.161301 13.302788,171.100540 
	C13.628624,173.940430 11.829800,178.325745 16.423141,180.465820 
	C16.659977,181.555801 16.742577,182.301910 16.634571,183.190308 
	C16.724377,183.920685 17.004787,184.508774 17.447186,185.401398 
	C17.657619,186.160324 17.706064,186.614716 17.523846,187.327484 
	C18.116344,194.382980 20.024067,200.751648 24.766441,206.363800 
	C25.407974,207.930466 25.877600,209.201752 26.245226,210.893524 
	C25.805920,213.494598 26.119789,215.187897 29.023191,215.169083 
	C29.128368,215.316025 29.189638,215.672180 29.144535,216.038971 
	C30.014471,217.615753 30.929512,218.825775 32.030418,220.268707 
	C32.543663,221.215698 32.871040,221.929733 33.155613,223.039566 
	C34.098583,226.677063 34.369663,230.461334 38.991264,231.172867 
	C39.104843,231.316635 39.188393,231.673431 39.127911,232.069702 
	C40.261902,237.664627 42.912067,241.750763 48.147148,244.191406 
	C48.624462,244.833847 48.867809,245.324997 49.073792,246.196503 
	C50.687992,248.718384 52.339550,250.859940 54.227074,253.172028 
	C54.751995,254.053833 55.040951,254.765121 55.249882,255.869537 
	C56.531658,258.129974 57.893459,259.997345 59.451187,262.039490 
	C59.828629,262.699829 60.010147,263.185333 60.153019,264.074097 
	C62.495846,270.345306 64.877319,276.213226 67.429787,282.423767 
	C67.692497,283.520935 67.784218,284.275452 67.607368,285.316650 
	C67.293701,287.410950 67.081276,289.232788 67.233948,291.023560 
	C67.752258,297.103302 68.925613,303.174011 68.902779,309.244598 
	C68.821922,330.741028 68.390724,352.236694 68.010735,373.731232 
	C67.741066,388.985748 67.479065,404.242859 66.936897,419.488983 
	C66.679085,426.738861 65.472420,433.956512 65.252251,441.205688 
	C65.042778,448.102814 65.558319,455.021912 65.816925,462.360474 
	C65.727066,464.500061 65.575378,466.210571 65.108704,468.091309 
	C64.808571,471.491241 64.823425,474.720886 64.891541,478.403198 
	C64.737373,481.548523 64.529953,484.241180 64.026939,487.104797 
	C62.828213,494.873871 61.869686,502.466339 61.092419,510.077271 
	C60.995888,511.022491 61.861801,512.065979 62.302780,513.379639 
	C62.291340,514.115417 62.258854,514.535400 61.901039,515.193359 
	C60.720356,522.471741 59.727821,529.498840 59.043697,536.555847 
	C58.148994,545.784973 57.973717,555.107056 56.639496,564.265381 
	C54.160313,581.283081 50.177631,598.175232 53.062859,615.516785 
	C54.652126,625.069031 56.012642,634.757263 58.814667,643.977478 
	C60.902119,650.846436 64.259247,657.766235 68.717216,663.327759 
	C71.801506,667.175598 74.827576,672.784241 81.605515,672.888306 
	C82.592148,673.351624 83.284218,673.752258 84.042130,674.491638 
	C92.357521,680.609192 101.530464,682.547241 111.229691,680.230103 
	C115.634460,679.177917 119.673767,676.595825 124.082458,674.479370 
	C125.390175,673.758606 126.494286,673.266174 127.993195,672.820068 
	C130.867096,671.824829 134.445511,671.919189 133.885956,667.456543 
	C134.152130,667.047729 134.371109,666.887695 135.009445,666.824036 
	C135.931992,665.926880 136.483917,664.999939 137.135864,663.843933 
	C137.430649,663.330200 137.689087,663.126282 138.364777,662.974609 
	C140.049530,660.805603 141.380737,658.664917 142.755615,656.260620 
	C142.968124,655.685486 143.136932,655.373840 143.638702,654.992798 
	C146.637619,648.550354 149.326981,642.186890 151.914917,635.782410 
	C152.080856,635.371704 151.462738,634.644165 151.190994,633.722412 
	C151.301865,632.945740 151.431107,632.510803 151.872986,631.942505 
	C152.745529,630.821594 153.638977,629.889771 153.815125,628.837891 
	C156.360443,613.638855 156.693558,598.369751 154.770859,583.083984 
	C154.504852,580.969177 153.293045,578.973328 152.401886,576.600830 
	C152.280945,575.825562 152.277206,575.371887 152.514526,574.617920 
	C152.766800,572.504211 152.928818,570.677002 152.765228,568.879517 
	C151.538666,555.401794 150.260040,541.928833 148.971390,528.456848 
	C148.421860,522.711853 147.903488,516.961060 147.181595,511.236755 
	C146.870483,508.769775 146.078735,506.363434 145.398849,503.523743 
	C145.268188,501.722565 145.243988,500.327118 145.471252,498.632690 
	C145.318192,495.196869 144.913681,492.059998 144.392792,488.533752 
	C144.278961,487.066772 144.281555,485.989136 144.529816,484.592773 
	C144.856293,483.616913 145.039703,482.954041 145.002853,482.303650 
	C144.037079,465.260559 142.912689,448.225189 142.101059,431.174927 
	C141.248672,413.268585 140.518860,395.352570 140.064682,377.432404 
	C139.739716,364.611145 139.931717,351.776093 139.940460,338.947235 
	C139.948700,326.862762 139.857849,314.774567 140.140106,302.695709 
	C140.255341,297.765259 141.028091,292.818420 141.879166,287.944946 
	C142.956375,281.776520 144.418427,275.675323 145.740097,269.278870 
	C145.910461,268.688446 146.055206,268.364227 146.528168,267.971863 
	C148.501099,264.486053 150.145813,261.068481 151.827240,257.476074 
	C151.863937,257.301300 152.087158,257.022491 152.428009,256.985718 
	C156.991302,252.686920 161.318970,248.490021 161.999039,242.017288 
	C161.993378,241.997177 162.034927,242.001678 162.380280,241.972610 
	C164.252808,240.321136 166.085327,238.888885 167.240311,237.034637 
	C169.308731,233.713913 170.969284,230.139160 172.841156,226.491119 
	C172.882004,226.311646 173.103867,226.017914 173.448700,225.977722 
	C175.113251,223.485397 176.432968,221.033279 177.782135,218.419067 
	C177.811600,218.256958 178.020157,218.001862 178.377930,217.944839 
	C179.041794,217.082123 179.347900,216.276413 179.688049,215.215454 
	C179.868103,214.650848 180.014099,214.341507 180.502319,213.981995 
	C181.704651,212.986404 182.887039,212.181488 183.370743,211.071960 
	C185.869476,205.340408 188.736877,199.684372 190.413666,193.704208 
	C192.010635,188.008759 192.299881,181.946640 193.130524,175.641663 
	C193.279053,174.181030 193.461121,173.124451 193.942352,171.905884 
	C194.821106,168.712570 195.802032,165.695160 195.907669,162.647415 
	C196.274460,152.065186 196.575500,141.467957 196.376221,130.886322 
	C196.313431,127.552040 194.599747,124.248848 193.505646,120.533623 
	C193.315170,118.735588 193.260696,117.335365 193.458710,115.636200 
	C193.803955,114.686821 194.067154,114.007866 193.963852,113.390205 
	C192.482834,104.535217 191.163239,95.645500 189.370316,86.852737 
	C187.801346,79.158401 186.269394,71.364700 183.612213,64.015831 
	C181.789246,58.974133 178.067093,54.619144 175.067993,49.724937 
	C174.864746,49.150959 174.787384,48.809242 174.781693,48.078003 
	C172.414841,43.126858 171.467438,37.543938 165.955444,34.761803 
	C165.477188,34.110310 165.180695,33.659943 164.902054,32.849274 
	C164.150131,31.716145 163.380356,30.943321 162.387604,30.025925 
	C161.735275,29.327888 161.305878,28.774427 160.895477,27.858995 
	C157.661819,23.173721 154.933762,18.251759 148.973572,17.018236 
	C148.981369,17.009060 148.972946,17.036707 148.952576,16.685005 
	C148.048798,15.181238 147.408539,13.502521 146.241913,12.963902 
	C139.456009,9.830929 132.516907,7.031269 125.703117,3.956032 
	C124.308174,3.326458 123.226227,2.003397 122.000000,1.000000 
M722.693298,299.239624 
	C715.929443,299.264038 715.947815,299.264038 715.950623,306.106873 
	C715.961060,331.436310 716.073669,356.766724 715.857239,382.094299 
	C715.816895,386.810333 716.953491,388.302795 721.902649,388.273987 
	C755.207458,388.080078 788.539001,387.433380 821.740967,391.013947 
	C844.812073,393.501984 867.676514,397.102173 888.865295,407.193329 
	C908.721130,416.649658 923.696838,430.836945 930.728638,452.373016 
	C935.865051,468.104156 935.996826,484.133484 934.090576,500.304352 
	C929.935547,535.552368 911.946167,560.830444 879.023438,574.525330 
	C841.820984,590.000366 802.578247,589.157654 763.368774,587.549500 
	C749.737061,586.990417 736.127136,585.890503 722.509827,584.997314 
	C719.709717,584.813660 718.391296,585.263184 718.578186,588.791687 
	C719.053589,597.763916 719.385254,606.793945 718.916138,615.755920 
	C717.816589,636.760559 713.789917,657.055054 702.390808,675.260254 
	C701.654114,676.436768 701.389343,677.908752 700.675720,679.875183 
	C705.316345,680.202454 709.246216,680.688110 713.180176,680.723450 
	C740.828369,680.971985 768.477173,681.159180 796.126160,681.304749 
	C826.986389,681.467163 857.668945,679.256653 888.093628,673.987549 
	C918.960632,668.641785 948.772949,660.086365 975.990662,644.048950 
	C1010.785461,623.547180 1034.608398,594.175476 1046.236572,555.402100 
	C1054.118286,529.121216 1056.629272,502.142426 1053.796265,474.842834 
	C1050.886108,446.799316 1040.458374,421.691345 1022.488159,399.881714 
	C997.179993,369.166199 964.034180,351.626404 925.748291,342.965729 
	C916.483765,340.869995 907.094421,339.325867 897.259094,337.431091 
	C898.123108,336.728088 898.437561,336.299500 898.846497,336.170746 
	C900.271973,335.721680 901.722107,335.342621 903.177063,334.996735 
	C922.548889,330.391785 941.231140,323.929016 958.446289,313.776459 
	C983.953735,298.733521 1004.651855,278.913116 1017.855835,252.063095 
	C1030.182129,226.997681 1032.326294,200.347305 1028.933716,173.058090 
	C1024.395630,136.556091 1007.921570,106.773087 978.310059,84.568169 
	C954.678223,66.847282 927.655457,56.775211 899.279114,49.947880 
	C876.429688,44.450329 853.246155,40.694687 829.744568,39.911610 
	C801.793518,38.980278 773.817566,38.807335 745.853577,38.244682 
	C742.574829,38.178715 741.950867,39.747910 742.237732,42.613159 
	C744.624817,66.455292 746.942627,90.304382 749.275879,114.151901 
	C749.884888,120.376793 750.474792,126.603546 751.094299,133.045837 
	C753.582886,133.045837 755.389404,133.048264 757.195923,133.045471 
	C776.995850,133.014877 796.816528,132.408554 816.589600,133.121979 
	C834.575806,133.770920 852.265259,137.024292 869.388977,142.987732 
	C884.051392,148.094040 896.510254,156.325836 904.281006,169.830933 
	C924.843079,205.566895 920.120789,261.347382 865.604431,283.301727 
	C837.661316,294.554718 808.342957,297.975281 778.636047,298.948212 
	C760.323425,299.547943 741.979004,299.175110 722.693298,299.239624 
M220.818115,147.405701 
	C220.753845,162.935547 219.592606,178.343201 215.692017,193.445969 
	C209.406601,217.782501 196.590912,238.737122 181.674988,258.540100 
	C179.178024,261.855133 179.037872,264.326935 181.018250,267.892395 
	C203.662460,308.660797 226.160446,349.510376 248.698792,390.337555 
	C275.262390,438.456299 301.824097,486.576111 328.392609,534.692139 
	C348.922485,571.872009 369.487915,609.032227 389.968231,646.239319 
	C393.011658,651.768311 397.263611,654.287720 403.712128,654.203613 
	C422.208466,653.962341 440.709991,654.122253 459.209473,654.116699 
	C472.375732,654.112732 485.542816,654.180969 498.707947,654.053406 
	C506.621033,653.976746 510.612640,649.911072 510.952026,642.011780 
	C511.016357,640.514404 510.973419,639.012268 510.973419,637.512329 
	C510.973877,443.684418 510.973785,249.856491 510.972687,56.028576 
	C510.972656,51.028732 511.031006,46.027596 510.939117,41.029324 
	C510.764221,31.514759 506.561523,27.232582 497.116119,27.213600 
	C467.617065,27.154314 438.117798,27.148323 408.618805,27.216871 
	C399.096008,27.238998 395.327576,30.779947 394.363556,40.176933 
	C394.194153,41.828270 394.259735,43.506355 394.259857,45.172081 
	C394.270325,179.501343 394.286469,313.830627 394.284454,448.159882 
	C394.284424,449.850708 394.056946,451.541565 393.836914,454.608337 
	C392.267731,452.228729 391.487427,451.199280 390.866547,450.081360 
	C376.230408,423.727295 361.598236,397.371033 346.992981,370.999847 
	C331.822845,343.608856 316.666229,316.210358 301.531769,288.799622 
	C281.244965,252.057129 260.994446,215.294601 240.707458,178.552185 
	C235.233261,168.637695 229.730042,158.738281 224.099976,148.912262 
	C223.506012,147.875626 221.962112,147.383286 220.818115,147.405701 
M693.590515,608.163208 
	C692.722595,596.557617 691.748413,584.958801 691.008301,573.345093 
	C689.325073,546.933533 687.443237,520.529114 686.222900,494.095062 
	C684.756104,462.322784 683.878784,430.523132 682.773804,398.734375 
	C682.334167,386.085480 681.879211,373.436035 681.587646,360.783264 
	C680.993042,334.976501 680.382263,309.168884 680.052979,283.358093 
	C679.963440,276.337860 682.440002,269.875793 687.476379,264.777435 
	C694.956787,257.204956 702.970154,250.127213 710.069824,242.222046 
	C714.443176,237.352448 718.382263,231.712296 721.043579,225.759659 
	C727.934082,210.347519 728.799377,193.759308 727.817383,177.221146 
	C726.101013,148.315659 724.061157,119.420731 721.549194,90.574295 
	C719.947998,72.186432 717.294312,53.888664 715.022400,35.561676 
	C714.303467,29.762762 711.958496,24.705395 707.388794,20.835072 
	C702.065796,16.326723 695.536926,16.366077 691.713501,22.161169 
	C688.895813,26.431978 686.923889,31.772455 686.281555,36.852108 
	C685.200989,45.397408 685.178955,54.116051 685.234131,62.758442 
	C685.437073,94.577400 685.959473,126.394684 686.052124,158.213501 
	C686.063110,161.980820 684.873718,166.165985 682.980896,169.425964 
	C680.244141,174.139603 675.286255,173.702087 672.816101,168.842896 
	C671.409912,166.076752 670.135559,162.917679 670.003174,159.883148 
	C669.198242,141.425629 668.673706,122.954750 668.182434,104.484955 
	C667.704163,86.502579 667.628052,68.505775 666.882141,50.535782 
	C666.496643,41.248001 665.630310,31.829559 660.711243,23.528234 
	C656.104065,15.753211 647.092590,14.169577 641.468872,20.374249 
	C639.097778,22.990265 636.991028,26.508667 636.359436,29.912870 
	C634.545349,39.690918 632.689880,49.593838 632.386353,59.494770 
	C631.467407,89.463638 631.449402,119.459389 630.656982,149.433487 
	C630.489075,155.787003 629.309326,162.374161 627.168274,168.341476 
	C625.053345,174.235855 619.247009,174.355103 616.288269,168.728683 
	C614.530090,165.385437 613.786194,161.130814 613.802673,157.291153 
	C613.956360,121.639694 614.661804,85.988098 614.505615,50.339619 
	C614.468445,41.870323 612.930847,33.004051 610.051575,25.056479 
	C606.713806,15.843300 595.741638,15.082527 590.192810,23.283428 
	C587.310913,27.542820 585.063049,32.825222 584.401917,37.890015 
	C581.604126,59.321960 579.315674,80.826836 577.221375,102.342079 
	C575.641724,118.571335 574.143188,134.837677 573.514771,151.122482 
	C572.829285,168.882980 572.311829,186.734436 573.334290,204.453140 
	C574.401489,222.946487 582.696594,238.493698 597.010315,250.729858 
	C604.455200,257.094116 612.216125,263.506592 613.902344,274.102264 
	C614.763550,279.514069 616.033020,284.971954 615.987793,290.399628 
	C615.572510,340.205109 615.060120,390.010895 614.261047,439.811584 
	C613.790833,469.118835 612.908813,498.422424 611.898682,527.716858 
	C611.405701,542.014099 610.106506,556.281921 609.334473,570.571777 
	C608.500305,586.011230 607.062439,601.475708 607.351318,616.901917 
	C607.639709,632.301636 611.142273,647.266174 619.300903,660.757446 
	C630.827759,679.818665 653.411438,684.801270 670.965942,672.003296 
	C678.963684,666.172607 683.347534,657.713928 686.750427,648.774109 
	C691.607788,636.013550 692.956177,622.593567 693.590515,608.163208 
z"/>
<path fill="#F1F9D7" opacity="1.000000" stroke="none" 
	d="
M121.583336,1.000000 
	C123.226227,2.003397 124.308174,3.326458 125.703117,3.956032 
	C132.516907,7.031269 139.456009,9.830929 146.241913,12.963902 
	C147.408539,13.502521 148.048798,15.181238 148.607178,16.634216 
	C138.275589,9.692145 126.886421,5.742846 115.163841,2.728000 
	C115.881706,1.993433 116.440849,1.496716 117.000000,1.000000 
	C118.388893,1.000000 119.777779,1.000000 121.583336,1.000000 
z"/>
<path fill="#F1F9D7" opacity="1.000000" stroke="none" 
	d="
M80.975433,5.931983 
	C82.475983,4.962082 83.931839,3.911112 85.492744,3.050714 
	C86.537453,2.474858 87.731369,2.169695 88.929260,1.371701 
	C96.687576,1.000000 104.375153,1.000000 112.536301,1.309948 
	C113.017830,2.033104 113.025787,2.446312 112.612679,2.925243 
	C107.781403,2.899410 103.323723,2.361525 98.972458,2.824271 
	C92.931610,3.466699 86.970612,4.860088 80.975433,5.931983 
z"/>
<path fill="#FEFEFD" opacity="1.000000" stroke="none" 
	d="
M113.033745,2.859519 
	C113.025787,2.446312 113.017830,2.033104 113.004944,1.309948 
	C114.066673,1.000000 115.133339,1.000000 116.600006,1.000000 
	C116.440849,1.496716 115.881706,1.993433 114.833611,2.758628 
	C113.907692,2.971244 113.470718,2.915381 113.033745,2.859519 
z"/>
<path fill="#DE9245" opacity="1.000000" stroke="none" 
	d="
M723.171082,299.239258 
	C741.979004,299.175110 760.323425,299.547943 778.636047,298.948212 
	C808.342957,297.975281 837.661316,294.554718 865.604431,283.301727 
	C920.120789,261.347382 924.843079,205.566895 904.281006,169.830933 
	C896.510254,156.325836 884.051392,148.094040 869.388977,142.987732 
	C852.265259,137.024292 834.575806,133.770920 816.589600,133.121979 
	C796.816528,132.408554 776.995850,133.014877 757.195923,133.045471 
	C755.389404,133.048264 753.582886,133.045837 751.094299,133.045837 
	C750.474792,126.603546 749.884888,120.376793 749.275879,114.151901 
	C746.942627,90.304382 744.624817,66.455292 742.237732,42.613159 
	C741.950867,39.747910 742.574829,38.178715 745.853577,38.244682 
	C773.817566,38.807335 801.793518,38.980278 829.744568,39.911610 
	C853.246155,40.694687 876.429688,44.450329 899.279114,49.947880 
	C927.655457,56.775211 954.678223,66.847282 978.310059,84.568169 
	C1007.921570,106.773087 1024.395630,136.556091 1028.933716,173.058090 
	C1032.326294,200.347305 1030.182129,226.997681 1017.855835,252.063095 
	C1004.651855,278.913116 983.953735,298.733521 958.446289,313.776459 
	C941.231140,323.929016 922.548889,330.391785 903.177063,334.996735 
	C901.722107,335.342621 900.271973,335.721680 898.846497,336.170746 
	C898.437561,336.299500 898.123108,336.728088 897.259094,337.431091 
	C907.094421,339.325867 916.483765,340.869995 925.748291,342.965729 
	C964.034180,351.626404 997.179993,369.166199 1022.488159,399.881714 
	C1040.458374,421.691345 1050.886108,446.799316 1053.796265,474.842834 
	C1056.629272,502.142426 1054.118286,529.121216 1046.236572,555.402100 
	C1034.608398,594.175476 1010.785461,623.547180 975.990662,644.048950 
	C948.772949,660.086365 918.960632,668.641785 888.093628,673.987549 
	C857.668945,679.256653 826.986389,681.467163 796.126160,681.304749 
	C768.477173,681.159180 740.828369,680.971985 713.180176,680.723450 
	C709.246216,680.688110 705.316345,680.202454 700.675720,679.875183 
	C701.389343,677.908752 701.654114,676.436768 702.390808,675.260254 
	C713.789917,657.055054 717.816589,636.760559 718.916138,615.755920 
	C719.385254,606.793945 719.053589,597.763916 718.578186,588.791687 
	C718.391296,585.263184 719.709717,584.813660 722.509827,584.997314 
	C736.127136,585.890503 749.737061,586.990417 763.368774,587.549500 
	C802.578247,589.157654 841.820984,590.000366 879.023438,574.525330 
	C911.946167,560.830444 929.935547,535.552368 934.090576,500.304352 
	C935.996826,484.133484 935.865051,468.104156 930.728638,452.373016 
	C923.696838,430.836945 908.721130,416.649658 888.865295,407.193329 
	C867.676514,397.102173 844.812073,393.501984 821.740967,391.013947 
	C788.539001,387.433380 755.207458,388.080078 721.902649,388.273987 
	C716.953491,388.302795 715.816895,386.810333 715.857239,382.094299 
	C716.073669,356.766724 715.961060,331.436310 715.950623,306.106873 
	C715.947815,299.264038 715.929443,299.264038 723.171082,299.239258 
z"/>
<path fill="#DE9245" opacity="1.000000" stroke="none" 
	d="
M220.838516,147.022064 
	C221.962112,147.383286 223.506012,147.875626 224.099976,148.912262 
	C229.730042,158.738281 235.233261,168.637695 240.707458,178.552185 
	C260.994446,215.294601 281.244965,252.057129 301.531769,288.799622 
	C316.666229,316.210358 331.822845,343.608856 346.992981,370.999847 
	C361.598236,397.371033 376.230408,423.727295 390.866547,450.081360 
	C391.487427,451.199280 392.267731,452.228729 393.836914,454.608337 
	C394.056946,451.541565 394.284424,449.850708 394.284454,448.159882 
	C394.286469,313.830627 394.270325,179.501343 394.259857,45.172081 
	C394.259735,43.506355 394.194153,41.828270 394.363556,40.176933 
	C395.327576,30.779947 399.096008,27.238998 408.618805,27.216871 
	C438.117798,27.148323 467.617065,27.154314 497.116119,27.213600 
	C506.561523,27.232582 510.764221,31.514759 510.939117,41.029324 
	C511.031006,46.027596 510.972656,51.028732 510.972687,56.028576 
	C510.973785,249.856491 510.973877,443.684418 510.973419,637.512329 
	C510.973419,639.012268 511.016357,640.514404 510.952026,642.011780 
	C510.612640,649.911072 506.621033,653.976746 498.707947,654.053406 
	C485.542816,654.180969 472.375732,654.112732 459.209473,654.116699 
	C440.709991,654.122253 422.208466,653.962341 403.712128,654.203613 
	C397.263611,654.287720 393.011658,651.768311 389.968231,646.239319 
	C369.487915,609.032227 348.922485,571.872009 328.392609,534.692139 
	C301.824097,486.576111 275.262390,438.456299 248.698792,390.337555 
	C226.160446,349.510376 203.662460,308.660797 181.018250,267.892395 
	C179.037872,264.326935 179.178024,261.855133 181.674988,258.540100 
	C196.590912,238.737122 209.406601,217.782501 215.692017,193.445969 
	C219.592606,178.343201 220.753845,162.935547 220.838516,147.022064 
z"/>
<path fill="#9CC156" opacity="1.000000" stroke="none" 
	d="
M112.612679,2.925243 
	C113.470718,2.915381 113.907692,2.971244 114.674896,2.996477 
	C126.886421,5.742846 138.275589,9.692145 148.627533,16.985918 
	C148.972946,17.036707 148.981369,17.009060 149.110001,17.322182 
	C153.117920,21.163860 156.997208,24.692415 160.876495,28.220968 
	C161.305878,28.774427 161.735275,29.327888 162.461777,30.356068 
	C163.467331,31.623720 164.175751,32.416653 164.884186,33.209579 
	C165.180695,33.659943 165.477188,34.110310 165.966217,35.109615 
	C169.009186,39.928211 171.859604,44.197868 174.710022,48.467522 
	C174.787384,48.809242 174.864746,49.150959 175.056076,50.087936 
	C179.549423,63.696018 184.356918,76.585487 188.154678,89.765892 
	C190.604523,98.268257 191.573547,107.197311 193.206223,115.935135 
	C193.260696,117.335365 193.315170,118.735588 193.340271,120.954773 
	C193.618362,129.084656 194.151031,136.394791 194.177094,143.706741 
	C194.210770,153.159698 193.839890,162.614090 193.643204,172.067871 
	C193.461121,173.124451 193.279053,174.181030 192.871399,175.913422 
	C192.237686,178.352341 191.983398,180.168518 191.396317,181.869858 
	C187.692017,192.604813 183.913864,203.314270 180.160095,214.032150 
	C180.014099,214.341507 179.868103,214.650848 179.412750,215.378006 
	C178.742325,216.531158 178.381241,217.266510 178.020157,218.001862 
	C178.020157,218.001862 177.811600,218.256958 177.489197,218.592972 
	C175.812500,221.291962 174.458176,223.654938 173.103867,226.017914 
	C173.103867,226.017914 172.882004,226.311646 172.528809,226.622101 
	C168.795380,231.955612 165.415161,236.978653 162.034943,242.001678 
	C162.034927,242.001678 161.993378,241.997177 161.693604,242.150177 
	C158.291611,247.209610 155.189377,252.116043 152.087158,257.022491 
	C152.087158,257.022491 151.863937,257.301300 151.522842,257.634521 
	C149.521164,261.325195 147.860565,264.682617 146.199982,268.040039 
	C146.055206,268.364227 145.910461,268.688446 145.447998,269.485229 
	C143.158508,276.610260 139.801926,283.194122 139.468689,289.927643 
	C138.369064,312.146393 137.610641,334.436035 138.106659,356.667542 
	C138.918640,393.060974 140.759186,429.432709 142.317993,465.807037 
	C142.591599,472.191559 143.609818,478.544189 144.284149,484.911530 
	C144.281555,485.989136 144.278961,487.066772 144.251007,488.966827 
	C144.557037,492.836761 144.888412,495.884216 145.219803,498.931702 
	C145.243988,500.327118 145.268188,501.722565 145.263489,503.968048 
	C146.718384,522.849304 148.107635,540.889160 149.743759,558.906494 
	C150.231354,564.276001 151.410950,569.582703 152.273483,574.918152 
	C152.277206,575.371887 152.280945,575.825562 152.268097,577.019043 
	C152.863419,586.669434 154.050690,595.588074 153.928070,604.488586 
	C153.801270,613.693481 152.402618,622.880798 151.560333,632.075806 
	C151.431107,632.510803 151.301865,632.945740 150.909164,633.956543 
	C148.199036,641.375610 145.752380,648.218933 143.305740,655.062256 
	C143.136932,655.373840 142.968124,655.685486 142.457123,656.421021 
	C140.747025,658.897644 139.379120,660.950317 138.011200,663.002991 
	C137.689087,663.126282 137.430649,663.330200 136.834961,663.938660 
	C135.835617,665.106384 135.237213,665.950317 134.638824,666.794250 
	C134.371109,666.887695 134.152130,667.047729 133.561264,667.567932 
	C131.293228,669.498840 129.445816,671.136292 127.598389,672.773743 
	C126.494286,673.266174 125.390175,673.758606 123.697067,674.532654 
	C109.966011,680.400696 96.925423,679.982544 83.976288,674.152893 
	C83.284218,673.752258 82.592148,673.351624 81.458672,672.585815 
	C76.709312,667.645020 71.560165,663.606018 68.239822,658.400452 
	C54.272991,636.503540 53.416611,611.916138 55.446301,587.125183 
	C56.975685,568.445068 59.687904,549.864197 61.659981,531.216492 
	C62.228958,525.836365 62.058064,520.377991 62.226372,514.955444 
	C62.258854,514.535400 62.291340,514.115417 62.528893,513.075256 
	C63.263477,503.948029 63.792995,495.440948 64.322517,486.933838 
	C64.529953,484.241180 64.737373,481.548523 65.156372,478.104370 
	C65.386528,474.208923 65.405106,471.065002 65.423676,467.921051 
	C65.575378,466.210571 65.727066,464.500061 66.105667,462.071960 
	C67.787750,432.854584 69.687508,404.368378 70.558922,375.850769 
	C71.269409,352.599640 70.971207,329.307770 70.641930,306.040771 
	C70.542641,299.025543 68.842667,292.032959 67.875931,285.029999 
	C67.784218,284.275452 67.692497,283.520935 67.573929,282.075684 
	C65.095276,275.480286 62.643467,269.575562 60.191666,263.670837 
	C60.010147,263.185333 59.828629,262.699829 59.412445,261.684814 
	C57.895153,259.262360 56.612526,257.369385 55.329903,255.476425 
	C55.040951,254.765121 54.751995,254.053833 54.193466,252.829712 
	C52.319649,250.149963 50.715401,247.983063 49.111153,245.816162 
	C48.867809,245.324997 48.624462,244.833847 48.122349,243.845795 
	C44.971851,239.457077 42.080124,235.565262 39.188393,231.673431 
	C39.188393,231.673431 39.104843,231.316635 38.972420,230.828064 
	C36.959473,227.774246 35.078941,225.209015 33.198410,222.643784 
	C32.871040,221.929733 32.543663,221.215698 32.033062,219.930740 
	C30.963106,218.130615 30.076374,216.901398 29.189640,215.672180 
	C29.189638,215.672180 29.128368,215.316025 29.022381,214.826767 
	C28.060003,213.049347 27.203615,211.761200 26.347229,210.473038 
	C25.877600,209.201752 25.407974,207.930466 24.818993,206.002319 
	C22.384594,199.253357 20.069551,193.161224 17.754507,187.069107 
	C17.706064,186.614716 17.657619,186.160324 17.578997,185.129028 
	C17.307606,184.050766 17.066393,183.549393 16.825180,183.048019 
	C16.742577,182.301910 16.659977,181.555801 16.582850,180.077576 
	C15.946381,165.962082 14.867205,152.580902 14.800541,139.194656 
	C14.747002,128.444046 15.920360,117.687302 16.549294,106.933281 
	C16.656275,106.498367 16.763254,106.063446 17.089920,105.124733 
	C17.276371,103.731461 17.243141,102.841988 17.209909,101.952515 
	C17.281059,101.346985 17.352207,100.741455 17.682301,99.599648 
	C18.797792,95.551613 19.493336,91.991043 20.540506,88.537079 
	C23.937229,77.333427 27.462841,66.168854 30.938820,54.989231 
	C31.633129,53.609703 32.327438,52.230175 33.342609,50.318993 
	C35.067688,47.183277 36.471901,44.579216 37.876114,41.975159 
	C37.876114,41.975159 38.104111,41.674168 38.441772,41.342819 
	C39.517807,39.673676 40.256180,38.335884 40.994556,36.998089 
	C42.008003,35.665989 43.021454,34.333889 44.440895,32.563534 
	C46.216599,30.414673 47.586311,28.704067 48.956024,26.993462 
	C48.956024,26.993462 49.169369,26.744434 49.514103,26.470501 
	C50.872898,25.116848 51.886955,24.037128 52.901016,22.957409 
	C53.473972,22.445837 54.046928,21.934263 55.138100,21.157902 
	C56.878052,19.653440 58.099789,18.413771 59.321529,17.174103 
	C59.321529,17.174103 59.672520,17.067165 60.149689,16.938028 
	C62.141609,15.594735 63.656357,14.380580 65.171104,13.166426 
	C65.171104,13.166426 64.980186,13.071736 65.428772,13.088296 
	C70.893173,10.721394 75.908997,8.337932 80.924812,5.954470 
	C80.924812,5.954470 80.967003,5.984459 80.971222,5.958221 
	C86.970612,4.860088 92.931610,3.466699 98.972458,2.824271 
	C103.323723,2.361525 107.781403,2.899410 112.612679,2.925243 
z"/>
<path fill="#9CC157" opacity="1.000000" stroke="none" 
	d="
M693.517944,608.612061 
	C692.956177,622.593567 691.607788,636.013550 686.750427,648.774109 
	C683.347534,657.713928 678.963684,666.172607 670.965942,672.003296 
	C653.411438,684.801270 630.827759,679.818665 619.300903,660.757446 
	C611.142273,647.266174 607.639709,632.301636 607.351318,616.901917 
	C607.062439,601.475708 608.500305,586.011230 609.334473,570.571777 
	C610.106506,556.281921 611.405701,542.014099 611.898682,527.716858 
	C612.908813,498.422424 613.790833,469.118835 614.261047,439.811584 
	C615.060120,390.010895 615.572510,340.205109 615.987793,290.399628 
	C616.033020,284.971954 614.763550,279.514069 613.902344,274.102264 
	C612.216125,263.506592 604.455200,257.094116 597.010315,250.729858 
	C582.696594,238.493698 574.401489,222.946487 573.334290,204.453140 
	C572.311829,186.734436 572.829285,168.882980 573.514771,151.122482 
	C574.143188,134.837677 575.641724,118.571335 577.221375,102.342079 
	C579.315674,80.826836 581.604126,59.321960 584.401917,37.890015 
	C585.063049,32.825222 587.310913,27.542820 590.192810,23.283428 
	C595.741638,15.082527 606.713806,15.843300 610.051575,25.056479 
	C612.930847,33.004051 614.468445,41.870323 614.505615,50.339619 
	C614.661804,85.988098 613.956360,121.639694 613.802673,157.291153 
	C613.786194,161.130814 614.530090,165.385437 616.288269,168.728683 
	C619.247009,174.355103 625.053345,174.235855 627.168274,168.341476 
	C629.309326,162.374161 630.489075,155.787003 630.656982,149.433487 
	C631.449402,119.459389 631.467407,89.463638 632.386353,59.494770 
	C632.689880,49.593838 634.545349,39.690918 636.359436,29.912870 
	C636.991028,26.508667 639.097778,22.990265 641.468872,20.374249 
	C647.092590,14.169577 656.104065,15.753211 660.711243,23.528234 
	C665.630310,31.829559 666.496643,41.248001 666.882141,50.535782 
	C667.628052,68.505775 667.704163,86.502579 668.182434,104.484955 
	C668.673706,122.954750 669.198242,141.425629 670.003174,159.883148 
	C670.135559,162.917679 671.409912,166.076752 672.816101,168.842896 
	C675.286255,173.702087 680.244141,174.139603 682.980896,169.425964 
	C684.873718,166.165985 686.063110,161.980820 686.052124,158.213501 
	C685.959473,126.394684 685.437073,94.577400 685.234131,62.758442 
	C685.178955,54.116051 685.200989,45.397408 686.281555,36.852108 
	C686.923889,31.772455 688.895813,26.431978 691.713501,22.161169 
	C695.536926,16.366077 702.065796,16.326723 707.388794,20.835072 
	C711.958496,24.705395 714.303467,29.762762 715.022400,35.561676 
	C717.294312,53.888664 719.947998,72.186432 721.549194,90.574295 
	C724.061157,119.420731 726.101013,148.315659 727.817383,177.221146 
	C728.799377,193.759308 727.934082,210.347519 721.043579,225.759659 
	C718.382263,231.712296 714.443176,237.352448 710.069824,242.222046 
	C702.970154,250.127213 694.956787,257.204956 687.476379,264.777435 
	C682.440002,269.875793 679.963440,276.337860 680.052979,283.358093 
	C680.382263,309.168884 680.993042,334.976501 681.587646,360.783264 
	C681.879211,373.436035 682.334167,386.085480 682.773804,398.734375 
	C683.878784,430.523132 684.756104,462.322784 686.222900,494.095062 
	C687.443237,520.529114 689.325073,546.933533 691.008301,573.345093 
	C691.748413,584.958801 692.722595,596.557617 693.517944,608.612061 
z"/>
<path fill="#F1F9D7" opacity="1.000000" stroke="none" 
	d="
M144.529816,484.592773 
	C143.609818,478.544189 142.591599,472.191559 142.317993,465.807037 
	C140.759186,429.432709 138.918640,393.060974 138.106659,356.667542 
	C137.610641,334.436035 138.369064,312.146393 139.468689,289.927643 
	C139.801926,283.194122 143.158508,276.610260 145.422394,269.751495 
	C144.418427,275.675323 142.956375,281.776520 141.879166,287.944946 
	C141.028091,292.818420 140.255341,297.765259 140.140106,302.695709 
	C139.857849,314.774567 139.948700,326.862762 139.940460,338.947235 
	C139.931717,351.776093 139.739716,364.611145 140.064682,377.432404 
	C140.518860,395.352570 141.248672,413.268585 142.101059,431.174927 
	C142.912689,448.225189 144.037079,465.260559 145.002853,482.303650 
	C145.039703,482.954041 144.856293,483.616913 144.529816,484.592773 
z"/>
<path fill="#F1F9D7" opacity="1.000000" stroke="none" 
	d="
M67.607368,285.316650 
	C68.842667,292.032959 70.542641,299.025543 70.641930,306.040771 
	C70.971207,329.307770 71.269409,352.599640 70.558922,375.850769 
	C69.687508,404.368378 67.787750,432.854584 66.043823,461.642883 
	C65.558319,455.021912 65.042778,448.102814 65.252251,441.205688 
	C65.472420,433.956512 66.679085,426.738861 66.936897,419.488983 
	C67.479065,404.242859 67.741066,388.985748 68.010735,373.731232 
	C68.390724,352.236694 68.821922,330.741028 68.902779,309.244598 
	C68.925613,303.174011 67.752258,297.103302 67.233948,291.023560 
	C67.081276,289.232788 67.293701,287.410950 67.607368,285.316650 
z"/>
<path fill="#F1F9D7" opacity="1.000000" stroke="none" 
	d="
M61.901039,515.193359 
	C62.058064,520.377991 62.228958,525.836365 61.659981,531.216492 
	C59.687904,549.864197 56.975685,568.445068 55.446301,587.125183 
	C53.416611,611.916138 54.272991,636.503540 68.239822,658.400452 
	C71.560165,663.606018 76.709312,667.645020 81.164108,672.523071 
	C74.827576,672.784241 71.801506,667.175598 68.717216,663.327759 
	C64.259247,657.766235 60.902119,650.846436 58.814667,643.977478 
	C56.012642,634.757263 54.652126,625.069031 53.062859,615.516785 
	C50.177631,598.175232 54.160313,581.283081 56.639496,564.265381 
	C57.973717,555.107056 58.148994,545.784973 59.043697,536.555847 
	C59.727821,529.498840 60.720356,522.471741 61.901039,515.193359 
z"/>
<path fill="#F1F9D7" opacity="1.000000" stroke="none" 
	d="
M16.223608,107.069298 
	C15.920360,117.687302 14.747002,128.444046 14.800541,139.194656 
	C14.867205,152.580902 15.946381,165.962082 16.428616,179.733704 
	C11.829800,178.325745 13.628624,173.940430 13.302788,171.100540 
	C10.900299,150.161301 11.927067,129.237106 15.119269,108.417107 
	C15.185742,107.983574 15.629941,107.607956 16.223608,107.069298 
z"/>
<path fill="#F1F9D7" opacity="1.000000" stroke="none" 
	d="
M152.514526,574.617920 
	C151.410950,569.582703 150.231354,564.276001 149.743759,558.906494 
	C148.107635,540.889160 146.718384,522.849304 145.369965,504.373840 
	C146.078735,506.363434 146.870483,508.769775 147.181595,511.236755 
	C147.903488,516.961060 148.421860,522.711853 148.971390,528.456848 
	C150.260040,541.928833 151.538666,555.401794 152.765228,568.879517 
	C152.928818,570.677002 152.766800,572.504211 152.514526,574.617920 
z"/>
<path fill="#F1F9D7" opacity="1.000000" stroke="none" 
	d="
M193.458710,115.636200 
	C191.573547,107.197311 190.604523,98.268257 188.154678,89.765892 
	C184.356918,76.585487 179.549423,63.696018 175.181961,50.320198 
	C178.067093,54.619144 181.789246,58.974133 183.612213,64.015831 
	C186.269394,71.364700 187.801346,79.158401 189.370316,86.852737 
	C191.163239,95.645500 192.482834,104.535217 193.963852,113.390205 
	C194.067154,114.007866 193.803955,114.686821 193.458710,115.636200 
z"/>
<path fill="#F1F9D7" opacity="1.000000" stroke="none" 
	d="
M151.872986,631.942505 
	C152.402618,622.880798 153.801270,613.693481 153.928070,604.488586 
	C154.050690,595.588074 152.863419,586.669434 152.385315,577.340576 
	C153.293045,578.973328 154.504852,580.969177 154.770859,583.083984 
	C156.693558,598.369751 156.360443,613.638855 153.815125,628.837891 
	C153.638977,629.889771 152.745529,630.821594 151.872986,631.942505 
z"/>
<path fill="#F1F9D7" opacity="1.000000" stroke="none" 
	d="
M193.942352,171.905884 
	C193.839890,162.614090 194.210770,153.159698 194.177094,143.706741 
	C194.151031,136.394791 193.618362,129.084656 193.476273,121.352570 
	C194.599747,124.248848 196.313431,127.552040 196.376221,130.886322 
	C196.575500,141.467957 196.274460,152.065186 195.907669,162.647415 
	C195.802032,165.695160 194.821106,168.712570 193.942352,171.905884 
z"/>
<path fill="#F1F9D7" opacity="1.000000" stroke="none" 
	d="
M30.587763,55.046932 
	C27.462841,66.168854 23.937229,77.333427 20.540506,88.537079 
	C19.493336,91.991043 18.797792,95.551613 17.645424,99.296173 
	C17.887291,95.165955 18.020073,90.704941 19.047247,86.460365 
	C21.163805,77.714149 23.610714,69.038048 26.265457,60.439232 
	C26.881866,58.442654 28.876335,56.871529 30.587763,55.046932 
z"/>
<path fill="#F1F9D7" opacity="1.000000" stroke="none" 
	d="
M84.042130,674.491638 
	C96.925423,679.982544 109.966011,680.400696 123.493469,674.760986 
	C119.673767,676.595825 115.634460,679.177917 111.229691,680.230103 
	C101.530464,682.547241 92.357521,680.609192 84.042130,674.491638 
z"/>
<path fill="#F1F9D7" opacity="1.000000" stroke="none" 
	d="
M180.502335,213.981995 
	C183.913864,203.314270 187.692017,192.604813 191.396317,181.869858 
	C191.983398,180.168518 192.237686,178.352341 192.904968,176.317474 
	C192.299881,181.946640 192.010635,188.008759 190.413666,193.704208 
	C188.736877,199.684372 185.869476,205.340408 183.370743,211.071960 
	C182.887039,212.181488 181.704651,212.986404 180.502335,213.981995 
z"/>
<path fill="#F1F9D7" opacity="1.000000" stroke="none" 
	d="
M64.026932,487.104797 
	C63.792995,495.440948 63.263477,503.948029 62.507851,512.759521 
	C61.861801,512.065979 60.995888,511.022491 61.092419,510.077271 
	C61.869686,502.466339 62.828213,494.873871 64.026932,487.104797 
z"/>
<path fill="#F1F9D7" opacity="1.000000" stroke="none" 
	d="
M143.638702,654.992798 
	C145.752380,648.218933 148.199036,641.375610 150.927521,634.298157 
	C151.462738,634.644165 152.080856,635.371704 151.914917,635.782410 
	C149.326981,642.186890 146.637619,648.550354 143.638702,654.992798 
z"/>
<path fill="#F1F9D7" opacity="1.000000" stroke="none" 
	d="
M17.523846,187.327484 
	C20.069551,193.161224 22.384594,199.253357 24.647087,205.706940 
	C20.024067,200.751648 18.116344,194.382980 17.523846,187.327484 
z"/>
<path fill="#F1F9D7" opacity="1.000000" stroke="none" 
	d="
M152.428009,256.985718 
	C155.189377,252.116043 158.291611,247.209610 161.699280,242.170288 
	C161.318970,248.490021 156.991302,252.686920 152.428009,256.985718 
z"/>
<path fill="#F1F9D7" opacity="1.000000" stroke="none" 
	d="
M162.380280,241.972610 
	C165.415161,236.978653 168.795380,231.955612 172.487946,226.801575 
	C170.969284,230.139160 169.308731,233.713913 167.240311,237.034637 
	C166.085327,238.888885 164.252808,240.321136 162.380280,241.972610 
z"/>
<path fill="#F1F9D7" opacity="1.000000" stroke="none" 
	d="
M60.153015,264.074097 
	C62.643467,269.575562 65.095276,275.480286 67.402939,281.733093 
	C64.877319,276.213226 62.495846,270.345306 60.153015,264.074097 
z"/>
<path fill="#F1F9D7" opacity="1.000000" stroke="none" 
	d="
M39.127911,232.069702 
	C42.080124,235.565262 44.971851,239.457077 47.888382,243.694519 
	C42.912067,241.750763 40.261902,237.664627 39.127911,232.069702 
z"/>
<path fill="#F1F9D7" opacity="1.000000" stroke="none" 
	d="
M80.517853,5.945632 
	C75.908997,8.337932 70.893173,10.721394 65.520195,13.144686 
	C65.934715,12.059487 66.471863,10.315713 67.519470,9.918620 
	C71.629234,8.360829 75.899948,7.227672 80.517853,5.945632 
z"/>
<path fill="#F1F9D7" opacity="1.000000" stroke="none" 
	d="
M160.895477,27.858995 
	C156.997208,24.692415 153.117920,21.163860 149.102203,17.331360 
	C154.933762,18.251759 157.661819,23.173721 160.895477,27.858995 
z"/>
<path fill="#F1F9D7" opacity="1.000000" stroke="none" 
	d="
M174.781693,48.077999 
	C171.859604,44.197868 169.009186,39.928211 166.147995,35.310745 
	C171.467438,37.543938 172.414841,43.126858 174.781693,48.077999 
z"/>
<path fill="#F1F9D7" opacity="1.000000" stroke="none" 
	d="
M33.155609,223.039566 
	C35.078941,225.209015 36.959473,227.774246 38.858841,230.684296 
	C34.369663,230.461334 34.098583,226.677063 33.155609,223.039566 
z"/>
<path fill="#F1F9D7" opacity="1.000000" stroke="none" 
	d="
M145.471252,498.632690 
	C144.888412,495.884216 144.557037,492.836761 144.367416,489.356201 
	C144.913681,492.059998 145.318192,495.196869 145.471252,498.632690 
z"/>
<path fill="#F1F9D7" opacity="1.000000" stroke="none" 
	d="
M146.528183,267.971863 
	C147.860565,264.682617 149.521164,261.325195 151.486145,257.809326 
	C150.145813,261.068481 148.501099,264.486053 146.528183,267.971863 
z"/>
<path fill="#F1F9D7" opacity="1.000000" stroke="none" 
	d="
M65.108704,468.091309 
	C65.405106,471.065002 65.386528,474.208923 65.103119,477.651733 
	C64.823425,474.720886 64.808571,471.491241 65.108704,468.091309 
z"/>
<path fill="#F1F9D7" opacity="1.000000" stroke="none" 
	d="
M37.527443,42.017822 
	C36.471901,44.579216 35.067688,47.183277 33.388474,49.989845 
	C34.468571,47.481735 35.823673,44.771114 37.527443,42.017822 
z"/>
<path fill="#F1F9D7" opacity="1.000000" stroke="none" 
	d="
M127.993187,672.820068 
	C129.445816,671.136292 131.293228,669.498840 133.465332,667.750000 
	C134.445511,671.919189 130.867096,671.824829 127.993187,672.820068 
z"/>
<path fill="#F1F9D7" opacity="1.000000" stroke="none" 
	d="
M48.592545,27.027462 
	C47.586311,28.704067 46.216599,30.414673 44.538166,32.260551 
	C43.358223,28.964855 45.705978,27.947428 48.592545,27.027462 
z"/>
<path fill="#F1F9D7" opacity="1.000000" stroke="none" 
	d="
M49.073792,246.196503 
	C50.715401,247.983063 52.319649,250.149963 53.957500,252.659195 
	C52.339550,250.859940 50.687992,248.718384 49.073792,246.196503 
z"/>
<path fill="#F1F9D7" opacity="1.000000" stroke="none" 
	d="
M173.448700,225.977722 
	C174.458176,223.654938 175.812500,221.291962 177.459747,218.755066 
	C176.432968,221.033279 175.113251,223.485397 173.448700,225.977722 
z"/>
<path fill="#F1F9D7" opacity="1.000000" stroke="none" 
	d="
M138.364777,662.974609 
	C139.379120,660.950317 140.747025,658.897644 142.413437,656.684570 
	C141.380737,658.664917 140.049530,660.805603 138.364777,662.974609 
z"/>
<path fill="#F1F9D7" opacity="1.000000" stroke="none" 
	d="
M55.249878,255.869537 
	C56.612526,257.369385 57.895153,259.262360 59.216522,261.510010 
	C57.893459,259.997345 56.531658,258.129974 55.249878,255.869537 
z"/>
<path fill="#F1F9D7" opacity="1.000000" stroke="none" 
	d="
M64.809380,13.136757 
	C63.656357,14.380580 62.141609,15.594735 60.288345,16.817900 
	C61.449108,15.586968 62.948383,14.347028 64.809380,13.136757 
z"/>
<path fill="#F1F9D7" opacity="1.000000" stroke="none" 
	d="
M58.954353,17.139282 
	C58.099789,18.413771 56.878052,19.653440 55.326447,20.934015 
	C56.193443,19.684767 57.390308,18.394613 58.954353,17.139282 
z"/>
<path fill="#F1F9D7" opacity="1.000000" stroke="none" 
	d="
M26.245228,210.893524 
	C27.203615,211.761200 28.060003,213.049347 28.917202,214.679825 
	C26.119789,215.187897 25.805920,213.494598 26.245228,210.893524 
z"/>
<path fill="#F1F9D7" opacity="1.000000" stroke="none" 
	d="
M52.528198,22.965683 
	C51.886955,24.037128 50.872898,25.116848 49.553749,26.311407 
	C50.217567,25.275484 51.186474,24.124720 52.528198,22.965683 
z"/>
<path fill="#F1F9D7" opacity="1.000000" stroke="none" 
	d="
M29.144535,216.038971 
	C30.076374,216.901398 30.963106,218.130615 31.847195,219.697815 
	C30.929512,218.825775 30.014471,217.615753 29.144535,216.038971 
z"/>
<path fill="#F1F9D7" opacity="1.000000" stroke="none" 
	d="
M40.644962,37.045135 
	C40.256180,38.335884 39.517807,39.673676 38.481239,41.158192 
	C38.887157,39.900673 39.591263,38.496429 40.644962,37.045135 
z"/>
<path fill="#F1F9D7" opacity="1.000000" stroke="none" 
	d="
M16.934410,102.106903 
	C17.243141,102.841988 17.276371,103.731461 17.072432,104.786987 
	C16.776478,104.055794 16.717695,103.158539 16.934410,102.106903 
z"/>
<path fill="#F1F9D7" opacity="1.000000" stroke="none" 
	d="
M164.902054,32.849274 
	C164.175751,32.416653 163.467331,31.623720 162.684723,30.500645 
	C163.380356,30.943321 164.150131,31.716145 164.902054,32.849274 
z"/>
<path fill="#F1F9D7" opacity="1.000000" stroke="none" 
	d="
M135.009430,666.824036 
	C135.237213,665.950317 135.835617,665.106384 136.734940,664.167725 
	C136.483917,664.999939 135.931992,665.926880 135.009430,666.824036 
z"/>
<path fill="#F1F9D7" opacity="1.000000" stroke="none" 
	d="
M178.377930,217.944839 
	C178.381241,217.266510 178.742325,216.531158 179.378708,215.633270 
	C179.347900,216.276413 179.041794,217.082123 178.377930,217.944839 
z"/>
<path fill="#F1F9D7" opacity="1.000000" stroke="none" 
	d="
M16.634573,183.190308 
	C17.066393,183.549393 17.307606,184.050766 17.417007,184.824493 
	C17.004787,184.508774 16.724377,183.920685 16.634573,183.190308 
z"/>
</svg>